<svg xmlns="http://www.w3.org/2000/svg" xmlns:xlink="http://www.w3.org/1999/xlink" viewBox="0 0 173.91 755.37"><defs><style>.cls-1,.cls-2,.cls-3{fill:none;}.cls-1{stroke:#000;}.cls-2{stroke-width:6px;stroke:url(#名称未設定グラデーション_17);}.cls-3{stroke:#fff;stroke-width:4px;}</style><linearGradient id="名称未設定グラデーション_17" x1="83.46" y1="13.5" x2="83.46" y2="752.7" gradientUnits="userSpaceOnUse"><stop offset="0.09" stop-color="#b92c92"/><stop offset="0.9" stop-color="#3463ae"/></linearGradient></defs><g id="レイヤー_2" data-name="レイヤー 2"><g id="レイヤー_1-2" data-name="レイヤー 1"><path class="cls-1" d="M102.54,130.64c-39.78,0-63.9-24.12-63.9-59.58,0-36,27.18-57.06,61.74-57.06,36.35,0,63.53,23.22,63.53,59C163.91,110.3,136,130.64,102.54,130.64ZM100.92,43c-23.76,0-40.5,11.16-40.5,29.52,0,18.54,17.64,29.16,41.22,29.16,21.78,0,40.49-10.44,40.49-29.34C142.13,53.78,124.5,43,100.92,43Z"/><path class="cls-1" d="M138.89,174.92V142.34h23v93.24h-23V202.46H40.62V174.92Z"/><path class="cls-1" d="M138.89,276.44V243.86h23v93.23h-23V304H40.62V276.44Z"/><path class="cls-1" d="M128.64,437.71c-5.58-.36-13-.72-26.1-.72H53.4c-16.92,0-30.78-3.42-39.6-13.32C5.52,414,3,400.81,3,387.85c0-11.52,2.34-23.76,6.84-31.68l20.7,5.4a54.12,54.12,0,0,0-6.66,25.56c0,13,7,22.86,23.22,22.86h5.76v-.36c-7.38-5.22-11.52-13.68-11.52-23.76,0-21.78,17.64-37.26,43-37.26,28.26,0,46.26,18.36,46.26,40,0,12.06-5.22,19.62-12.42,24.12v.36l10.44.9ZM92.82,409.63a21.64,21.64,0,0,0,5-.54c7.2-2,12.06-7.2,12.06-14.76,0-9.9-9-18-25-18-13.14,0-23.4,6.48-23.4,18a14.86,14.86,0,0,0,11.16,14.4,23.24,23.24,0,0,0,7.2.9Z"/><path class="cls-1" d="M40.62,511.87l8.82-1.62v-.54c-7-5.76-10.8-14.76-10.8-25.2,0-17.82,13-28.44,27-28.44,22.86,0,33.84,20.52,33.66,51.66h1.26c4.68,0,11.34-2.52,11.34-16a49.5,49.5,0,0,0-6.66-24.3l17.64-5c3.41,6.12,7.74,18.18,7.74,34.2,0,29.34-17.28,38.7-38,38.7H62c-8.46,0-16.56.36-21.42,1.26Zm41.58-3.24c.18-14.4-3.24-25.56-13.86-25.56-7,0-10.44,4.68-10.44,10.8A15,15,0,0,0,68,508.09a19.62,19.62,0,0,0,4.68.54Z"/><path class="cls-1" d="M100.56,559.75c11,0,20.34-.36,28.08-.72v23.76l-12.06,1.26v.54a32.22,32.22,0,0,1,14,27.18c0,18-11.88,31.5-37.8,31.5H40.62V615.91H89.4c11.34,0,19.08-4,19.08-13.86,0-7.56-5.22-12.06-10.26-13.86a18.8,18.8,0,0,0-6.84-1.08H40.62V559.75Z"/><path class="cls-1" d="M128.64,752.17c-5.58-.36-13-.72-26.1-.72H53.4c-16.92,0-30.78-3.42-39.6-13.32C5.52,728.41,3,715.27,3,702.31c0-11.52,2.34-23.76,6.84-31.68l20.7,5.4a54.12,54.12,0,0,0-6.66,25.56c0,13,7,22.86,23.22,22.86h5.76v-.36c-7.38-5.22-11.52-13.68-11.52-23.76,0-21.78,17.64-37.26,43-37.26,28.26,0,46.26,18.36,46.26,40,0,12.06-5.22,19.62-12.42,24.12v.36l10.44.9ZM92.82,724.09a21.64,21.64,0,0,0,5-.54c7.2-2,12.06-7.2,12.06-14.76,0-9.9-9-18-25-18-13.14,0-23.4,6.48-23.4,18a14.86,14.86,0,0,0,11.16,14.4,23.24,23.24,0,0,0,7.2.9Z"/><path class="cls-2" d="M102.54,130.64c-39.78,0-63.9-24.12-63.9-59.58,0-36,27.18-57.06,61.74-57.06,36.35,0,63.53,23.22,63.53,59C163.91,110.3,136,130.64,102.54,130.64ZM100.92,43c-23.76,0-40.5,11.16-40.5,29.52,0,18.54,17.64,29.16,41.22,29.16,21.78,0,40.49-10.44,40.49-29.34C142.13,53.78,124.5,43,100.92,43Z"/><path class="cls-2" d="M138.89,174.92V142.34h23v93.24h-23V202.46H40.62V174.92Z"/><path class="cls-2" d="M138.89,276.44V243.86h23v93.23h-23V304H40.62V276.44Z"/><path class="cls-2" d="M128.64,437.71c-5.58-.36-13-.72-26.1-.72H53.4c-16.92,0-30.78-3.42-39.6-13.32C5.52,414,3,400.81,3,387.85c0-11.52,2.34-23.76,6.84-31.68l20.7,5.4a54.12,54.12,0,0,0-6.66,25.56c0,13,7,22.86,23.22,22.86h5.76v-.36c-7.38-5.22-11.52-13.68-11.52-23.76,0-21.78,17.64-37.26,43-37.26,28.26,0,46.26,18.36,46.26,40,0,12.06-5.22,19.62-12.42,24.12v.36l10.44.9ZM92.82,409.63a21.64,21.64,0,0,0,5-.54c7.2-2,12.06-7.2,12.06-14.76,0-9.9-9-18-25-18-13.14,0-23.4,6.48-23.4,18a14.86,14.86,0,0,0,11.16,14.4,23.24,23.24,0,0,0,7.2.9Z"/><path class="cls-2" d="M40.62,511.87l8.82-1.62v-.54c-7-5.76-10.8-14.76-10.8-25.2,0-17.82,13-28.44,27-28.44,22.86,0,33.84,20.52,33.66,51.66h1.26c4.68,0,11.34-2.52,11.34-16a49.5,49.5,0,0,0-6.66-24.3l17.64-5c3.41,6.12,7.74,18.18,7.74,34.2,0,29.34-17.28,38.7-38,38.7H62c-8.46,0-16.56.36-21.42,1.26Zm41.58-3.24c.18-14.4-3.24-25.56-13.86-25.56-7,0-10.44,4.68-10.44,10.8A15,15,0,0,0,68,508.09a19.62,19.62,0,0,0,4.68.54Z"/><path class="cls-2" d="M100.56,559.75c11,0,20.34-.36,28.08-.72v23.76l-12.06,1.26v.54a32.22,32.22,0,0,1,14,27.18c0,18-11.88,31.5-37.8,31.5H40.62V615.91H89.4c11.34,0,19.08-4,19.08-13.86,0-7.56-5.22-12.06-10.26-13.86a18.8,18.8,0,0,0-6.84-1.08H40.62V559.75Z"/><path class="cls-2" d="M128.64,752.17c-5.58-.36-13-.72-26.1-.72H53.4c-16.92,0-30.78-3.42-39.6-13.32C5.52,728.41,3,715.27,3,702.31c0-11.52,2.34-23.76,6.84-31.68l20.7,5.4a54.12,54.12,0,0,0-6.66,25.56c0,13,7,22.86,23.22,22.86h5.76v-.36c-7.38-5.22-11.52-13.68-11.52-23.76,0-21.78,17.64-37.26,43-37.26,28.26,0,46.26,18.36,46.26,40,0,12.06-5.22,19.62-12.42,24.12v.36l10.44.9ZM92.82,724.09a21.64,21.64,0,0,0,5-.54c7.2-2,12.06-7.2,12.06-14.76,0-9.9-9-18-25-18-13.14,0-23.4,6.48-23.4,18a14.86,14.86,0,0,0,11.16,14.4,23.24,23.24,0,0,0,7.2.9Z"/><path class="cls-3" d="M110.54,118.64c-39.78,0-63.9-24.12-63.9-59.58C46.64,23.06,73.82,2,108.38,2c36.35,0,63.53,23.22,63.53,59C171.91,98.3,144,118.64,110.54,118.64ZM108.92,31c-23.76,0-40.5,11.16-40.5,29.52,0,18.54,17.64,29.16,41.22,29.16,21.78,0,40.49-10.44,40.49-29.34C150.13,41.78,132.5,31,108.92,31Z"/><path class="cls-3" d="M146.89,162.92V130.34h23v93.24h-23V190.46H48.62V162.92Z"/><path class="cls-3" d="M146.89,264.44V231.86h23v93.23h-23V292H48.62V264.44Z"/><path class="cls-3" d="M136.64,425.71c-5.58-.36-13-.72-26.1-.72H61.4c-16.92,0-30.78-3.42-39.6-13.32C13.52,402,11,388.81,11,375.85c0-11.52,2.34-23.76,6.84-31.68l20.7,5.4a54.12,54.12,0,0,0-6.66,25.56c0,13,7,22.86,23.22,22.86h5.76v-.36c-7.38-5.22-11.52-13.68-11.52-23.76,0-21.78,17.64-37.26,43-37.26,28.26,0,46.26,18.36,46.26,40,0,12.06-5.22,19.62-12.42,24.12v.36l10.44.9Zm-35.82-28.08a21.64,21.64,0,0,0,5-.54c7.2-2,12.06-7.2,12.06-14.76,0-9.9-9-18-25-18-13.14,0-23.4,6.48-23.4,18a14.86,14.86,0,0,0,11.16,14.4,23.24,23.24,0,0,0,7.2.9Z"/><path class="cls-3" d="M48.62,499.87l8.82-1.62v-.54c-7-5.76-10.8-14.76-10.8-25.2,0-17.82,13-28.44,27-28.44,22.86,0,33.84,20.52,33.66,51.66h1.26c4.68,0,11.34-2.52,11.34-16a49.5,49.5,0,0,0-6.66-24.3l17.64-5c3.41,6.12,7.74,18.18,7.74,34.2,0,29.34-17.28,38.7-38,38.7H70c-8.46,0-16.56.36-21.42,1.26Zm41.58-3.24c.18-14.4-3.24-25.56-13.86-25.56-7,0-10.44,4.68-10.44,10.8A15,15,0,0,0,76,496.09a19.62,19.62,0,0,0,4.68.54Z"/><path class="cls-3" d="M108.56,547.75c11,0,20.34-.36,28.08-.72v23.76l-12.06,1.26v.54a32.22,32.22,0,0,1,14,27.18c0,18-11.88,31.5-37.8,31.5H48.62V603.91H97.4c11.34,0,19.08-4,19.08-13.86,0-7.56-5.22-12.06-10.26-13.86a18.8,18.8,0,0,0-6.84-1.08H48.62V547.75Z"/><path class="cls-3" d="M136.64,740.17c-5.58-.36-13-.72-26.1-.72H61.4c-16.92,0-30.78-3.42-39.6-13.32C13.52,716.41,11,703.27,11,690.31c0-11.52,2.34-23.76,6.84-31.68l20.7,5.4a54.12,54.12,0,0,0-6.66,25.56c0,13,7,22.86,23.22,22.86h5.76v-.36c-7.38-5.22-11.52-13.68-11.52-23.76,0-21.78,17.64-37.26,43-37.26,28.26,0,46.26,18.36,46.26,40,0,12.06-5.22,19.62-12.42,24.12v.36l10.44.9Zm-35.82-28.08a21.64,21.64,0,0,0,5-.54c7.2-2,12.06-7.2,12.06-14.76,0-9.9-9-18-25-18-13.14,0-23.4,6.48-23.4,18a14.86,14.86,0,0,0,11.16,14.4,23.24,23.24,0,0,0,7.2.9Z"/></g></g></svg>