<svg xmlns="http://www.w3.org/2000/svg" xmlns:xlink="http://www.w3.org/1999/xlink" viewBox="0 0 206.16 772.11"><defs><style>.cls-1,.cls-3{font-size:180px;font-family:MyriadPro-Bold, Myriad Pro;font-weight:700;letter-spacing:0.02em;}.cls-1,.cls-2,.cls-3{fill:none;}.cls-1{stroke:#000;}.cls-2{stroke-width:6px;stroke:url(#名称未設定グラデーション_17);}.cls-3{stroke:#fff;stroke-width:4px;}</style><linearGradient id="名称未設定グラデーション_17" x1="88.34" y1="19.8" x2="88.34" y2="759" gradientUnits="userSpaceOnUse"><stop offset="0.09" stop-color="#b92c92"/><stop offset="0.9" stop-color="#3463ae"/></linearGradient></defs><g id="レイヤー_2" data-name="レイヤー 2"><g id="レイヤー_1-2" data-name="レイヤー 1"><text class="cls-1" transform="translate(45.5 14) rotate(90)">OTTgang</text><path class="cls-2" d="M107.42,136.94c-39.78,0-63.9-24.12-63.9-59.58,0-36,27.18-57.06,61.74-57.06,36.36,0,63.53,23.22,63.53,59C168.79,116.6,140.9,136.94,107.42,136.94ZM105.8,49.28C82,49.28,65.3,60.44,65.3,78.8,65.3,97.34,82.94,108,106.52,108,128.3,108,147,97.52,147,78.62,147,60.08,129.38,49.28,105.8,49.28Z"/><path class="cls-2" d="M143.78,181.22V148.64h23v93.24h-23V208.76H45.5V181.22Z"/><path class="cls-2" d="M143.78,282.74V250.16h23v93.23h-23V310.27H45.5V282.74Z"/><path class="cls-2" d="M133.52,444c-5.58-.36-13-.72-26.1-.72H58.28c-16.92,0-30.78-3.42-39.6-13.32-8.28-9.72-10.8-22.86-10.8-35.82,0-11.52,2.34-23.76,6.84-31.68l20.7,5.4a54.12,54.12,0,0,0-6.66,25.56c0,13,7,22.86,23.22,22.86h5.76v-.36c-7.38-5.22-11.52-13.68-11.52-23.76,0-21.78,17.64-37.26,43-37.26,28.26,0,46.26,18.36,46.26,40,0,12.06-5.22,19.62-12.42,24.12v.36l10.44.9ZM97.7,415.93a21.64,21.64,0,0,0,5-.54c7.2-2,12.06-7.2,12.06-14.76,0-9.9-9-18-25-18-13.14,0-23.4,6.48-23.4,18A14.86,14.86,0,0,0,77.54,415a23.24,23.24,0,0,0,7.2.9Z"/><path class="cls-2" d="M45.5,518.17l8.82-1.62V516c-7-5.76-10.8-14.76-10.8-25.2,0-17.82,13-28.44,27-28.44,22.86,0,33.84,20.52,33.66,51.66h1.26c4.68,0,11.34-2.52,11.34-16a49.5,49.5,0,0,0-6.66-24.3l17.64-5c3.42,6.12,7.74,18.18,7.74,34.2,0,29.34-17.28,38.7-38,38.7H66.92c-8.46,0-16.56.36-21.42,1.26Zm41.58-3.24c.18-14.4-3.24-25.56-13.86-25.56-7,0-10.44,4.68-10.44,10.8a15,15,0,0,0,10.08,14.22,19.62,19.62,0,0,0,4.68.54Z"/><path class="cls-2" d="M105.44,566.05c11,0,20.34-.36,28.08-.72v23.76l-12.06,1.26v.54a32.22,32.22,0,0,1,14,27.18c0,18-11.88,31.5-37.8,31.5H45.5V622.21H94.28c11.34,0,19.08-4,19.08-13.86,0-7.56-5.22-12.06-10.26-13.86a18.8,18.8,0,0,0-6.84-1.08H45.5V566.05Z"/><path class="cls-2" d="M133.52,758.47c-5.58-.36-13-.72-26.1-.72H58.28c-16.92,0-30.78-3.42-39.6-13.32-8.28-9.72-10.8-22.86-10.8-35.82,0-11.52,2.34-23.76,6.84-31.68l20.7,5.4a54.12,54.12,0,0,0-6.66,25.56c0,13,7,22.86,23.22,22.86h5.76v-.36c-7.38-5.22-11.52-13.68-11.52-23.76,0-21.78,17.64-37.26,43-37.26,28.26,0,46.26,18.36,46.26,40,0,12.06-5.22,19.62-12.42,24.12v.36l10.44.9ZM97.7,730.39a21.64,21.64,0,0,0,5-.54c7.2-2,12.06-7.2,12.06-14.76,0-9.9-9-18-25-18-13.14,0-23.4,6.48-23.4,18a14.86,14.86,0,0,0,11.16,14.4,23.24,23.24,0,0,0,7.2.9Z"/><text class="cls-3" transform="translate(53.5 2) rotate(90)">OTTgang</text></g></g></svg>